inDegrees=no
num_controls=7
num_derivatives=13
num_iterations=115
num_multipliers=7
num_parameters=0
num_slacks=7
num_states=26
objective=0.510838
objective_accelerations=0.003135
objective_balance=0.002987
objective_effort=0.015606
objective_height=0.479757
objective_ligament=0.009353
solver_duration=1379.097643
status=Solve_Succeeded
success=true
DataType=double
version=3
OpenSimVersion=4.5
endheader
time	/jointset/ground_pelvis/pelvis_tilt/value	/jointset/ground_pelvis/pelvis_tx/value	/jointset/ground_pelvis/pelvis_ty/value	/jointset/hip_r/hip_flexion_r/value	/jointset/hip_r/hip_adduction_r/value	/jointset/hip_r/hip_rotation_r/value	/jointset/back/lumbar_extension/value	/jointset/patellofemoral_r/patellar_flexion_r/value	/jointset/knee_r/knee_flexion_r/value	/jointset/knee_r/knee_adduction_r/value	/jointset/knee_r/knee_rotation_r/value	/jointset/ankle_r/ankle_angle_r/value	/jointset/subtalar_r/subtalar_angle_r/value	/jointset/ground_pelvis/pelvis_tilt/speed	/jointset/ground_pelvis/pelvis_tx/speed	/jointset/ground_pelvis/pelvis_ty/speed	/jointset/hip_r/hip_flexion_r/speed	/jointset/hip_r/hip_adduction_r/speed	/jointset/hip_r/hip_rotation_r/speed	/jointset/back/lumbar_extension/speed	/jointset/patellofemoral_r/patellar_flexion_r/speed	/jointset/knee_r/knee_flexion_r/speed	/jointset/knee_r/knee_adduction_r/speed	/jointset/knee_r/knee_rotation_r/speed	/jointset/ankle_r/ankle_angle_r/speed	/jointset/subtalar_r/subtalar_angle_r/speed	/forceset/tau_hip_flexion_r	/forceset/tau_hip_adduction_r	/forceset/tau_hip_rotation_r	/forceset/tau_knee_flexion_r	/forceset/tau_ankle_angle_r	/forceset/tau_subtalar_angle_r	/forceset/tau_lumbar_extension	lambda_cid13_p0	lambda_cid14_p0	lambda_cid14_p1	lambda_cid14_p2	lambda_cid14_p3	lambda_cid14_p4	lambda_cid14_p5	/jointset/ground_pelvis/pelvis_tilt/accel	/jointset/ground_pelvis/pelvis_tx/accel	/jointset/ground_pelvis/pelvis_ty/accel	/jointset/hip_r/hip_flexion_r/accel	/jointset/hip_r/hip_adduction_r/accel	/jointset/hip_r/hip_rotation_r/accel	/jointset/back/lumbar_extension/accel	/jointset/patellofemoral_r/patellar_flexion_r/accel	/jointset/knee_r/knee_flexion_r/accel	/jointset/knee_r/knee_adduction_r/accel	/jointset/knee_r/knee_rotation_r/accel	/jointset/ankle_r/ankle_angle_r/accel	/jointset/subtalar_r/subtalar_angle_r/accel	gamma_cid13_p0	gamma_cid14_p0	gamma_cid14_p1	gamma_cid14_p2	gamma_cid14_p3	gamma_cid14_p4	gamma_cid14_p5
1	0.03791000999256806	0.1553720187411326	0.9436790198789811	0.1251253882908764	-0.1956905692915052	-0.2518823011743094	-0.1957699805513245	0.1786727722208163	0.1786727722207566	0.06971736527571681	0.1728124599678394	0.1758697133517479	0.07630144929193049	-0.01383835393150042	0.01376210399775101	0.002246121437897598	-0.02813972100343397	0.006936921605400128	-0.01397724682553603	0.0552114470762306	-0.04928365273375078	-0.04928365273375074	-0.001853189239183153	-5.027836388348141e-05	-0.006673836661327794	0.006670843030916656	0.05081516729786875	-0.01084808228179678	-0.009009988530222852	-0.1522184921077425	-0.03684358991738753	-0.02004442519144354	0.03907480188939412	-41.62809202979626	-56.04441093336418	-11.60334898589104	-5.588636863389908	15.70468718816961	-699.4588795183237	54.2931104412343	-0.2776312710307002	-0.1545922982340832	0.01828007174966765	0.1412380687057926	-0.06862098829880521	-0.05809196731310799	0.7285224223141936	-0.5866182102435817	-0.5866182102435707	0.3162710740899415	0.01293385793829593	-0.5421043810333208	-0.2497396165459914	3.616458444372559e-10	-4.634526256405289e-10	-2.421530043158763e-09	2.557131687075332e-09	7.112565095080871e-10	-3.535972908801002e-09	-3.040752173877063e-09
1.01	0.0377576491219893	0.1555018994979648	0.9437023579667269	0.1248513534474763	-0.1956247283031996	-0.2520249750709911	-0.1951813884745443	0.1781509743391493	0.1781509743391031	0.06971475358416709	0.172812723270289	0.1757760028220109	0.07635559103544709	-0.01663330376470191	0.01221362240442801	0.002421105409456823	-0.02666582231522483	0.006230979655807828	-0.01455699012060851	0.06250314873501754	-0.05507303239450748	-0.05507303239450748	0.001330995016979188	0.0001027251326305364	-0.01206737716651908	0.004157376478620388	0.05099118947848702	-0.01088234771534608	-0.009027495107795398	-0.1520491580720852	-0.03683238915832617	-0.02006738955898434	0.03886500044896665	-41.61750813874925	-56.03766664309322	-11.61047323037647	-5.58940667922148	15.68329829055081	-699.3954277971492	54.28754247862536	-0.2803492572852688	-0.155039694378864	0.01704818737695001	0.1506796206836796	-0.07162506498475955	-0.05783369285968964	0.7289211059235642	-0.5746642477333064	-0.5746642477333553	0.3195135972866813	0.01645200271056654	-0.5378450807947441	-0.2521696637825036	4.220143599277095e-10	-4.152403584844627e-10	-2.847088932948418e-09	2.716356654368202e-09	7.009719457060709e-10	-3.833074775916293e-09	-3.496088635350301e-09
1.02	0.03757735426951587	0.1556162827179642	0.9437274340196917	0.1245921003613225	-0.1955659555877292	-0.2521734300370748	-0.1945199939675225	0.1775713693801255	0.1775713693800978	0.06974398803435927	0.172814510289145	0.1756283836481156	0.07638459421559851	-0.01942515031071704	0.01066259663116888	0.002593714481718557	-0.02518336955481318	0.005523267038403695	-0.01513346070589678	0.06977193312431663	-0.06084506820492685	-0.06084506820492683	0.004516039109434598	0.0002544649172506859	-0.01745556549301793	0.001643130357881127	0.05116721165912641	-0.01091661314889883	-0.009045001685360505	-0.1518798240364172	-0.03682118839926161	-0.02009035392652856	0.03865519900855571	-41.60579802807273	-56.03631553762684	-11.61742288839403	-5.591482353500522	15.68411715828135	-699.4064277253271	54.29544092069533	-0.2770106135934179	-0.1551011342213207	0.01780509189017041	0.1429488831463026	-0.06897512186116896	-0.05743742535626253	0.7239389684166281	-0.5831494401761161	-0.5831494401760927	0.3164430413485498	0.01268111555951633	-0.5410339452948451	-0.2498955302345905	4.778060915655951e-10	-3.530434503609618e-10	-3.260928590849828e-09	2.913207645647021e-09	6.865575111632025e-10	-4.052227676481447e-09	-3.985984608202522e-09
1.03	0.03736916839748776	0.1557151420998922	0.9437542231216247	0.1243477081092383	-0.1955142721521239	-0.2523276311436194	-0.1937860420190577	0.1769341424823008	0.1769341424822214	0.06980508013072298	0.1728178057479374	0.175426914780065	0.0763884507800944	-0.02221050259686691	0.00910875372536501	0.002763563774773487	-0.02369385224426554	0.00481298498016552	-0.01570625994356042	0.07701322743729577	-0.06659592831047009	-0.06659592831046972	0.007702302656386299	0.0004043606938422276	-0.02283659783492124	-0.0008716830496612647	0.05136528141432136	-0.01101612624333064	-0.00906329534051474	-0.1517132380818601	-0.03671463869985928	-0.02011516949737806	0.03840896557893052	-41.59294576251466	-55.99914516787651	-11.61926919870031	-5.593955465949884	15.66296419377618	-699.3309049001915	54.31308839922658	-0.2790691732434609	-0.1556046388255603	0.01649267305801481	0.1521375075846485	-0.07211979910362391	-0.05712555682411267	0.7234402930295792	-0.5703969453362941	-0.5703969453362921	0.3197062148354129	0.0161044106881776	-0.5363963055647397	-0.2522542812414767	5.335511213274341e-10	-2.907038418194257e-10	-3.674648664752379e-09	3.110442575946105e-09	6.72100935082162e-10	-4.270585179428743e-09	-4.476233229130041e-09
1.04	0.03713317467517593	0.1557984472987488	0.9437826942814973	0.1241182479007776	-0.1954697045473608	-0.2524875451193112	-0.192979834001404	0.1762395384535005	0.176239538453375	0.06989803250324798	0.1728225922848937	0.1751716839032102	0.07636716320346935	-0.02498672036772173	0.007551760016898477	0.00293012606960794	-0.02219696083069709	0.004100100869988718	-0.01627603453533306	0.08422314696192312	-0.07232049439972699	-0.07232049439972638	0.01088809434201634	0.000552680549603565	-0.02820796725389037	-0.003385697866300827	0.05156335116953494	-0.01111563933776531	-0.009081588995655143	-0.1515466521272941	-0.03660808900045415	-0.02013998506823048	0.03816273214932003	-41.57894322259154	-55.96733687626453	-11.62094171231116	-5.597727188077622	15.66392121942108	-699.3293784089174	54.34429445056548	-0.2751837105343991	-0.1557312947538672	0.01714769224607603	0.1444237037504722	-0.06949553224889192	-0.05683249617805527	0.7176640107462704	-0.5778906369188467	-0.5778906369188462	0.3163486690842114	0.01236593139346844	-0.5391013607080248	-0.249735812054026	6.016602922286737e-10	-2.28767676171734e-10	-4.179711182068169e-09	3.429772214874495e-09	6.624609567002017e-10	-4.484726189612803e-09	-5.154354506920348e-09
1.05	0.03686947615083171	0.1558661678140799	0.9438128135948134	0.1239037827907363	-0.1954322839519878	-0.2526531430811529	-0.1921016977025804	0.1754878290739966	0.1754878290739728	0.07002284788831732	0.1728288554893188	0.1748627933423922	0.07632073708026185	-0.02775054638727842	0.005991895776227061	0.003093044621885086	-0.0206952373843754	0.003383411013465803	-0.01684360322431158	0.09139771191081746	-0.07801561722948498	-0.07801561722948498	0.01407475700202403	0.0007001280087511449	-0.03356767265869106	-0.005899119151223473	0.05178766704502159	-0.01127558688212902	-0.009101316596807336	-0.1513949601434203	-0.03638481943142131	-0.02017672208851496	0.03787787934064405	-41.56377359972142	-55.89338940182861	-11.62139556153836	-5.600571407046096	15.63739420754283	-699.2424039619222	54.37843153007881	-0.2766161753682926	-0.156180949235261	0.01575919905679531	0.1531703043740323	-0.07284651944689531	-0.05672524934010549	0.7163926031609639	-0.5644585999597825	-0.5644585999599095	0.3197909965571139	0.01595992740865132	-0.5340342185929579	-0.2520844253128167	6.701558425405194e-10	-1.668441181144751e-10	-4.687628150740623e-09	3.75291731344755e-09	6.529714969963378e-10	-4.698735434398013e-09	-5.838346805237617e-09
